<?xml version="1.0" encoding="UTF-8" standalone="no"?>
<svg
   xmlns:dc="http://purl.org/dc/elements/1.1/"
   xmlns:cc="http://creativecommons.org/ns#"
   xmlns:rdf="http://www.w3.org/1999/02/22-rdf-syntax-ns#"
   xmlns:svg="http://www.w3.org/2000/svg"
   xmlns="http://www.w3.org/2000/svg"
   xmlns:sodipodi="http://sodipodi.sourceforge.net/DTD/sodipodi-0.dtd"
   xmlns:inkscape="http://www.inkscape.org/namespaces/inkscape"
   version="1.0"
   width="512.000000pt"
   height="512.000000pt"
   viewBox="0 0 512.000000 512.000000"
   preserveAspectRatio="xMidYMid meet"
   id="svg5123"
   inkscape:version="0.91 r13725"
   sodipodi:docname="logo-white.svg">
  <defs
     id="defs5133" />
  <sodipodi:namedview
     pagecolor="#ffffff"
     bordercolor="#666666"
     borderopacity="1"
     objecttolerance="10"
     gridtolerance="10"
     guidetolerance="10"
     inkscape:pageopacity="0"
     inkscape:pageshadow="2"
     inkscape:window-width="1916"
     inkscape:window-height="1041"
     id="namedview5131"
     showgrid="false"
     inkscape:zoom="0.52149125"
     inkscape:cx="-58.731283"
     inkscape:cy="239.77704"
     inkscape:window-x="0"
     inkscape:window-y="18"
     inkscape:window-maximized="0"
     inkscape:current-layer="svg5123" />
  <metadata
     id="metadata5125">
Created by potrace 1.11, written by Peter Selinger 2001-2013
<rdf:RDF>
  <cc:Work
     rdf:about="">
    <dc:format>image/svg+xml</dc:format>
    <dc:type
       rdf:resource="http://purl.org/dc/dcmitype/StillImage" />
    <dc:title></dc:title>
  </cc:Work>
</rdf:RDF>
</metadata>
  <g
     transform="translate(0.000000,512.000000) scale(0.100000,-0.100000)"
     id="g5127"
     style="fill:#ffffff"
     stroke="none"
     fill="#000000">
    <path
       d="M2325 5089 c-692 -66 -1329 -411 -1760 -954 -291 -365 -474 -800 -537 -1275 -19 -147 -16 -499 6 -655 22 -158 81 -395 131 -530 87 -237 247 -521 402 -716 318 -399 789 -715 1274 -854 66 -19 124 -35 129 -35 4 0 11 181 14 402 6 345 5 414 -8 483 -41 207 -89 280 -316 479 -227 198 -326 306 -418 451 -62 99 -115 256 -143 425 -23 136 -15 589 12 631 7 11 24 6 96 -31 314 -162 557 -369 685 -585 95 -158 169 -497 212 -960 23 -240 23 -242 25 -125 2 167 69 446 183 765 100 280 167 393 338 565 171 174 362 309 585 416 257 124 625 189 1022 182 l172 -3 -152 -320 c-275 -578 -363 -720 -586 -948 -173 -177 -325 -285 -548 -388 -51 -24 -350 -152 -551 -236 -31 -13 110 316 190 443 47 75 184 264 264 364 34 41 30 39 -106 -72 -239 -194 -339 -326 -499 -660 -178 -370 -202 -455 -182 -643 6 -55 13 -140 15 -189 3 -48 15 -182 27 -296 l22 -207 66 -7 c165 -15 398 -2 611 34 687 117 1317 534 1698 1123 820 1267 370 2957 -971 3652 -428 222 -926 319 -1402 274z"
       id="path5129"
       style="fill:#ffffff" />
  </g>
</svg>
